<svg xmlns="http://www.w3.org/2000/svg" width="24" height="24" fill="none" viewBox="0 0 24 24" aria-labelledby="" style="color:currentColor"><path fill="currentColor" fill-rule="evenodd" d="M1 7a4 4 0 0 1 4-4h8a4 4 0 0 1 4 4v4a4 4 0 0 1-4 4h-1.167L8.1 17.8a1 1 0 1 1-1.2-1.6l4-3a1 1 0 0 1 .6-.2H13a2 2 0 0 0 2-2V7a2 2 0 0 0-2-2H5a2 2 0 0 0-2 2v4a2 2 0 0 0 2 2h1.5a1 1 0 1 1 0 2H5a4 4 0 0 1-4-4zm10.5 10a1 1 0 0 1 1-1H14a1 1 0 0 1 .6.2l4 3a1 1 0 0 1-1.2 1.6L13.667 18H12.5a1 1 0 0 1-1-1M18 7a1 1 0 0 1 1-1 4 4 0 0 1 4 4v4a4 4 0 0 1-4 4 1 1 0 1 1 0-2 2 2 0 0 0 2-2v-4a2 2 0 0 0-2-2 1 1 0 0 1-1-1" clip-rule="evenodd"></path></svg>